<svg width="154" height="47" viewBox="0 0 154 47" fill="none" xmlns="http://www.w3.org/2000/svg">
<path d="M37.3089 40.5099C37.2774 40.6906 37.1912 40.8572 37.062 40.9873C36.9327 41.1174 36.7666 41.2046 36.5862 41.2373L31.9079 42.1558C31.8617 42.1649 31.8137 42.1594 31.7708 42.1399C31.7279 42.1204 31.6921 42.0879 31.6686 42.0471L29.6401 38.5335C29.6092 38.4799 29.5677 38.4331 29.5181 38.3962C29.4684 38.3592 29.4117 38.3329 29.3515 38.3188C29.2912 38.3047 29.2287 38.3032 29.1678 38.3143C29.107 38.3253 29.049 38.3488 28.9976 38.3832C28.9022 38.4501 28.8356 38.5506 28.8111 38.6645C28.7867 38.7784 28.8061 38.8974 28.8656 38.9976L30.8846 42.4945C30.9082 42.5352 30.9185 42.5823 30.914 42.6292C30.9095 42.6761 30.8905 42.7204 30.8596 42.7559L27.7248 46.3534C27.6053 46.4924 27.4463 46.5917 27.2689 46.6381C27.0915 46.6846 26.9043 46.6759 26.7319 46.6133C26.5596 46.5506 26.4105 46.437 26.3043 46.2876C26.1982 46.1381 26.14 45.9598 26.1377 45.7765L26.0863 34.8607C26.0845 34.7006 26.1254 34.5428 26.2047 34.4037C26.284 34.2645 26.3989 34.149 26.5376 34.0689C26.6763 33.9888 26.8339 33.9471 26.994 33.9479C27.1542 33.9488 27.3113 33.9923 27.4491 34.074L36.8783 39.5722C37.0379 39.6651 37.1649 39.805 37.242 39.9729C37.3191 40.1407 37.3425 40.3283 37.3089 40.5099Z" fill="white"/>
<path fill-rule="evenodd" clip-rule="evenodd" d="M19.611 2.31869C21.9394 2.31869 23.8268 4.20613 23.8268 6.53444V14.0175C23.8268 14.6578 24.3459 15.1769 24.9862 15.1769C25.6265 15.1769 26.1455 14.6578 26.1455 14.0175V6.53444C26.1455 2.92552 23.2199 0 19.611 0C16.0021 0 13.0765 2.92559 13.0765 6.5345V14.0175C13.0765 14.6578 13.5956 15.1769 14.2359 15.1769C14.8762 15.1769 15.3952 14.6578 15.3952 14.0175V6.5345C15.3952 4.20617 17.2827 2.31869 19.611 2.31869Z" fill="white"/>
<path fill-rule="evenodd" clip-rule="evenodd" d="M33.8528 13.4069C33.5423 10.6923 31.2447 8.64258 28.5125 8.64258H10.7788C8.02667 8.64258 5.71911 10.7214 5.43284 13.4586L3.0299 36.4348C2.69811 39.6072 5.1861 42.369 8.37589 42.369H17.7913C21.4119 42.369 23.997 38.862 22.9258 35.4035L22.0585 32.6034C21.2084 29.8587 24.6294 27.8321 26.6281 29.8964C29.9822 33.3605 35.8196 30.601 35.2716 25.8104L33.8528 13.4069ZM28.5125 10.9613C30.0661 10.9613 31.3726 12.1268 31.5491 13.6704L32.9679 26.0739C33.2643 28.6645 30.1076 30.1567 28.2938 28.2835C24.5977 24.4662 18.2716 28.2139 19.8436 33.2894L20.7109 36.0896C21.32 38.0562 19.8501 40.0503 17.7913 40.0503H8.37589C6.56209 40.0503 5.14735 38.4799 5.33602 36.6759L7.73896 13.6998C7.90174 12.1433 9.21388 10.9613 10.7788 10.9613H28.5125Z" fill="white"/>
<path d="M50 30.2243C50 26.9698 50 23.6766 50 20.3446C50 17.0127 50 13.7194 50 10.4649C51.9937 10.4649 54.0071 10.4649 56.0402 10.4649C58.0734 10.4649 60.0868 10.4649 62.0804 10.4649C62.0804 11.2011 62.0804 11.9566 62.0804 12.7314C62.0804 13.5063 62.0804 14.2618 62.0804 14.998C60.9356 14.998 59.7808 14.998 58.6162 14.998C57.4713 14.998 56.3264 14.998 55.1816 14.998C55.1816 15.4823 55.1816 15.9666 55.1816 16.4509C55.1816 16.9158 55.1816 17.3904 55.1816 17.8747C56.2277 17.8747 57.2838 17.8747 58.3497 17.8747C59.4156 17.8747 60.4618 17.8747 61.4883 17.8747C61.4883 18.5915 61.4883 19.3179 61.4883 20.0541C61.4883 20.7902 61.4883 21.5263 61.4883 22.2625C60.4618 22.2625 59.4156 22.2625 58.3497 22.2625C57.2838 22.2625 56.2277 22.2625 55.1816 22.2625C55.1816 22.8242 55.1816 23.3957 55.1816 23.9769C55.1816 24.558 55.1816 25.1295 55.1816 25.6913C56.3264 25.6913 57.4713 25.6913 58.6162 25.6913C59.7808 25.6913 60.9356 25.6913 62.0804 25.6913C62.0804 26.4274 62.0804 27.1829 62.0804 27.9578C62.0804 28.7327 62.0804 29.4882 62.0804 30.2243C60.0868 30.2243 58.0734 30.2243 56.0402 30.2243C54.0071 30.2243 51.9937 30.2243 50 30.2243Z" fill="white"/>
<path d="M81.2469 24.2675C81.2469 25.7397 80.8521 26.9408 80.0625 27.8706C79.2927 28.7811 78.2465 29.4398 76.924 29.8466C75.6212 30.2534 74.1605 30.4277 72.5419 30.3696C70.9233 30.3309 69.275 30.0887 67.5972 29.6432C67.5972 28.8102 67.5972 27.9772 67.5972 27.1442C67.5972 26.3112 67.5972 25.4782 67.5972 24.6452C69.1369 25.1876 70.5383 25.5266 71.8017 25.6622C73.065 25.7978 74.0717 25.7494 74.8218 25.517C75.5719 25.2651 75.9469 24.8486 75.9469 24.2675C75.9469 23.8606 75.7396 23.5313 75.3251 23.2795C74.9106 23.0083 74.3678 22.7661 73.6966 22.553C73.0452 22.3399 72.3544 22.0978 71.624 21.8266C70.8936 21.536 70.1929 21.1776 69.5218 20.7514C68.8704 20.3059 68.3374 19.7344 67.9229 19.037C67.5084 18.3203 67.3011 17.4292 67.3011 16.3637C67.3011 15.0464 67.6564 13.9325 68.367 13.022C69.0776 12.1115 70.035 11.4238 71.2391 10.9589C72.4629 10.494 73.8447 10.2615 75.3843 10.2615C76.9437 10.2615 78.5525 10.494 80.2106 10.9589C80.2106 11.7919 80.2106 12.6249 80.2106 13.4579C80.2106 14.2909 80.2106 15.1239 80.2106 15.9569C78.8288 15.3757 77.5557 15.027 76.391 14.9108C75.2462 14.7752 74.3283 14.8333 73.6374 15.0851C72.9465 15.3176 72.6011 15.705 72.6011 16.2475C72.6011 16.6349 72.8084 16.9545 73.2229 17.2064C73.6374 17.4582 74.1704 17.6907 74.8218 17.9038C75.4929 18.0975 76.1936 18.3396 76.924 18.6302C77.6544 18.9014 78.3452 19.2695 78.9966 19.7344C79.6678 20.18 80.2106 20.7708 80.6251 21.507C81.0396 22.2237 81.2469 23.1439 81.2469 24.2675Z" fill="white"/>
<path d="M91.4941 30.2243C90.6453 30.2243 89.7867 30.2243 88.9182 30.2243C88.0496 30.2243 87.1811 30.2243 86.3126 30.2243C86.3126 26.9698 86.3126 23.6766 86.3126 20.3446C86.3126 17.0127 86.3126 13.7194 86.3126 10.4649C87.1811 10.4649 88.0496 10.4649 88.9182 10.4649C89.7867 10.4649 90.6453 10.4649 91.4941 10.4649C91.4941 11.6466 91.4941 12.838 91.4941 14.0391C91.4941 15.2207 91.4941 16.4024 91.4941 17.5841C92.5403 17.5841 93.5964 17.5841 94.6623 17.5841C95.7282 17.5841 96.7744 17.5841 97.8008 17.5841C97.8008 16.4024 97.8008 15.2207 97.8008 14.0391C97.8008 12.838 97.8008 11.6466 97.8008 10.4649C98.6694 10.4649 99.5379 10.4649 100.406 10.4649C101.275 10.4649 102.134 10.4649 102.982 10.4649C102.982 13.7194 102.982 17.0127 102.982 20.3446C102.982 23.6766 102.982 26.9698 102.982 30.2243C102.134 30.2243 101.275 30.2243 100.406 30.2243C99.5379 30.2243 98.6694 30.2243 97.8008 30.2243C97.8008 28.907 97.8008 27.5801 97.8008 26.2434C97.8008 24.8874 97.8008 23.5604 97.8008 22.2625C96.7744 22.2625 95.7282 22.2625 94.6623 22.2625C93.5964 22.2625 92.5403 22.2625 91.4941 22.2625C91.4941 23.5604 91.4941 24.8874 91.4941 26.2434C91.4941 27.5801 91.4941 28.907 91.4941 30.2243Z" fill="white"/>
<path d="M118.182 30.6893C116.741 30.6893 115.409 30.4374 114.185 29.9338C112.961 29.4107 111.905 28.6843 111.017 27.7544C110.129 26.8246 109.438 25.73 108.944 24.4709C108.451 23.1923 108.204 21.8072 108.204 20.3156C108.204 18.8239 108.451 17.4485 108.944 16.1893C109.438 14.9302 110.129 13.8453 111.017 12.9349C111.905 12.005 112.961 11.2882 114.185 10.7846C115.409 10.2615 116.741 10 118.182 10C119.623 10 120.946 10.2615 122.15 10.7846C123.374 11.2882 124.43 12.005 125.318 12.9349C126.226 13.8453 126.927 14.9302 127.42 16.1893C127.914 17.4485 128.161 18.8239 128.161 20.3156C128.161 21.8072 127.914 23.1923 127.42 24.4709C126.927 25.73 126.226 26.8246 125.318 27.7544C124.43 28.6843 123.374 29.4107 122.15 29.9338C120.946 30.4374 119.623 30.6893 118.182 30.6893ZM118.182 25.9819C119.15 25.9819 119.979 25.7494 120.67 25.2845C121.36 24.8002 121.893 24.1319 122.268 23.2795C122.663 22.4271 122.861 21.4392 122.861 20.3156C122.861 19.192 122.663 18.2137 122.268 17.3807C121.893 16.5477 121.36 15.8988 120.67 15.4338C119.979 14.9495 119.15 14.7074 118.182 14.7074C117.235 14.7074 116.406 14.9399 115.695 15.4048C115.004 15.8697 114.462 16.5284 114.067 17.3807C113.692 18.2137 113.504 19.192 113.504 20.3156C113.504 21.4392 113.692 22.4271 114.067 23.2795C114.462 24.1319 115.004 24.8002 115.695 25.2845C116.406 25.7494 117.235 25.9819 118.182 25.9819Z" fill="white"/>
<path d="M133.382 30.2243C133.382 26.9698 133.382 23.6766 133.382 20.3446C133.382 17.0127 133.382 13.7194 133.382 10.4649C134.605 10.4649 135.829 10.4649 137.053 10.4649C138.297 10.4649 139.52 10.4649 140.725 10.4649C142.244 10.4649 143.567 10.7555 144.692 11.3367C145.817 11.8985 146.696 12.6927 147.327 13.7194C147.959 14.7461 148.275 15.9472 148.275 17.3226C148.275 18.6786 147.959 19.87 147.327 20.8967C146.715 21.9235 145.867 22.7177 144.781 23.2795C143.715 23.8413 142.501 24.1222 141.139 24.1222C140.705 24.1222 140.271 24.1222 139.836 24.1222C139.422 24.1222 138.997 24.1222 138.563 24.1222C138.563 25.1295 138.563 26.1465 138.563 27.1733C138.563 28.2 138.563 29.217 138.563 30.2243C137.714 30.2243 136.856 30.2243 135.987 30.2243C135.119 30.2243 134.25 30.2243 133.382 30.2243ZM140.725 15.027C140.369 15.027 140.004 15.027 139.629 15.027C139.274 15.027 138.918 15.027 138.563 15.027C138.563 15.8019 138.563 16.5865 138.563 17.3807C138.563 18.1556 138.563 18.9305 138.563 19.7054C138.958 19.7054 139.363 19.7054 139.777 19.7054C140.211 19.7054 140.626 19.7054 141.021 19.7054C141.633 19.7054 142.126 19.4826 142.501 19.037C142.896 18.5915 143.093 18.0394 143.093 17.3807C143.093 16.7027 142.886 16.1409 142.471 15.6954C142.057 15.2498 141.475 15.027 140.725 15.027Z" fill="white"/>
<path d="M53.064 37.2215C53.064 37.4555 53.0106 37.6704 52.9037 37.866C52.7968 38.0579 52.6326 38.2132 52.4111 38.3322C52.1897 38.4511 51.9148 38.5106 51.5864 38.5106H50.9793V39.9608H50V35.9208H51.5864C51.9072 35.9208 52.1782 35.9765 52.3997 36.0877C52.6211 36.199 52.7872 36.3525 52.898 36.5481C53.0087 36.7438 53.064 36.9682 53.064 37.2215ZM51.512 37.7279C51.6991 37.7279 51.8384 37.6838 51.9301 37.5955C52.0217 37.5073 52.0675 37.3826 52.0675 37.2215C52.0675 37.0603 52.0217 36.9356 51.9301 36.8474C51.8384 36.7591 51.6991 36.715 51.512 36.715H50.9793V37.7279H51.512Z" fill="white"/>
<path d="M55.3092 35.9208V38.3379C55.3092 38.5796 55.3684 38.7657 55.4868 38.8962C55.6051 39.0266 55.7789 39.0918 56.0079 39.0918C56.237 39.0918 56.4127 39.0266 56.5348 38.8962C56.657 38.7657 56.7181 38.5796 56.7181 38.3379V35.9208H57.6975V38.3322C57.6975 38.6928 57.6211 38.9978 57.4684 39.2472C57.3157 39.4966 57.1095 39.6846 56.8498 39.8112C56.594 39.9378 56.3077 40.0011 55.9908 40.0011C55.6739 40.0011 55.3894 39.9397 55.1374 39.817C54.8892 39.6904 54.6926 39.5024 54.5475 39.253C54.4024 38.9998 54.3299 38.6928 54.3299 38.3322V35.9208H55.3092Z" fill="white"/>
<path d="M61.2087 39.9608L60.3725 38.4358H60.1377V39.9608H59.1583V35.9208H60.802C61.1189 35.9208 61.3881 35.9765 61.6096 36.0877C61.8348 36.199 62.0028 36.3525 62.1136 36.5481C62.2243 36.74 62.2797 36.9548 62.2797 37.1927C62.2797 37.4613 62.2033 37.701 62.0506 37.9121C61.9017 38.1231 61.6802 38.2727 61.3862 38.361L62.314 39.9608H61.2087ZM60.1377 37.7394H60.7448C60.9242 37.7394 61.0579 37.6953 61.1457 37.607C61.2373 37.5188 61.2831 37.3941 61.2831 37.233C61.2831 37.0795 61.2373 36.9587 61.1457 36.8704C61.0579 36.7822 60.9242 36.738 60.7448 36.738H60.1377V37.7394Z" fill="white"/>
<path d="M63.5015 37.9351C63.5015 37.5361 63.5874 37.1812 63.7592 36.8704C63.931 36.5558 64.1697 36.3122 64.4751 36.1395C64.7844 35.963 65.1338 35.8748 65.5232 35.8748C66.0005 35.8748 66.409 36.0014 66.7488 36.2546C67.0886 36.5078 67.3158 36.8531 67.4304 37.2905H66.3536C66.2735 37.1217 66.1589 36.9932 66.01 36.9049C65.8649 36.8167 65.6988 36.7726 65.5118 36.7726C65.2101 36.7726 64.9658 36.8781 64.7787 37.0891C64.5916 37.3001 64.498 37.5821 64.498 37.9351C64.498 38.2881 64.5916 38.5701 64.7787 38.7811C64.9658 38.9921 65.2101 39.0976 65.5118 39.0976C65.6988 39.0976 65.8649 39.0535 66.01 38.9652C66.1589 38.877 66.2735 38.7485 66.3536 38.5796H67.4304C67.3158 39.017 67.0886 39.3623 66.7488 39.6155C66.409 39.8649 66.0005 39.9896 65.5232 39.9896C65.1338 39.9896 64.7844 39.9033 64.4751 39.7306C64.1697 39.5542 63.931 39.3105 63.7592 38.9998C63.5874 38.689 63.5015 38.3341 63.5015 37.9351Z" fill="white"/>
<path d="M72.2854 35.9208V39.9608H71.306V38.2977H69.7826V39.9608H68.8033V35.9208H69.7826V37.5035H71.306V35.9208H72.2854Z" fill="white"/>
<path d="M76.2683 39.2472H74.7678L74.5273 39.9608H73.5021L74.9568 35.9208H76.0908L77.5455 39.9608H76.5089L76.2683 39.2472ZM76.0163 38.4876L75.5181 37.0085L75.0255 38.4876H76.0163Z" fill="white"/>
<path d="M80.2161 40.0011C79.9221 40.0011 79.6587 39.9532 79.4258 39.8573C79.1928 39.7613 79.0058 39.6194 78.8645 39.4314C78.727 39.2434 78.6545 39.017 78.6469 38.7523H79.6892C79.7045 38.9019 79.756 39.017 79.8438 39.0976C79.9317 39.1743 80.0462 39.2127 80.1875 39.2127C80.3326 39.2127 80.4471 39.1801 80.5311 39.1149C80.6151 39.0458 80.6571 38.9518 80.6571 38.8329C80.6571 38.7331 80.6227 38.6506 80.554 38.5854C80.4891 38.5202 80.407 38.4665 80.3077 38.4243C80.2123 38.3821 80.0748 38.3341 79.8954 38.2804C79.6358 38.1998 79.4238 38.1192 79.2597 38.0387C79.0955 37.9581 78.9542 37.8392 78.8359 37.6819C78.7175 37.5246 78.6583 37.3193 78.6583 37.0661C78.6583 36.6901 78.7939 36.3966 79.0649 36.1856C79.336 35.9707 79.6892 35.8633 80.1245 35.8633C80.5674 35.8633 80.9244 35.9707 81.1955 36.1856C81.4665 36.3966 81.6116 36.692 81.6307 37.0718H80.5712C80.5636 36.9414 80.5158 36.8397 80.428 36.7668C80.3402 36.6901 80.2276 36.6517 80.0901 36.6517C79.9717 36.6517 79.8763 36.6843 79.8037 36.7496C79.7312 36.8109 79.6949 36.9011 79.6949 37.02C79.6949 37.1505 79.756 37.2522 79.8782 37.3251C80.0004 37.398 80.1913 37.4766 80.4509 37.561C80.7106 37.6493 80.9205 37.7337 81.0809 37.8142C81.2451 37.8948 81.3864 38.0118 81.5047 38.1653C81.6231 38.3188 81.6823 38.5163 81.6823 38.7581C81.6823 38.9883 81.6231 39.1974 81.5047 39.3853C81.3902 39.5733 81.2222 39.723 81.0007 39.8342C80.7793 39.9455 80.5177 40.0011 80.2161 40.0011Z" fill="white"/>
<path d="M84.0375 36.7093V37.5265H85.349V38.2861H84.0375V39.1724H85.5208V39.9608H83.0581V35.9208H85.5208V36.7093H84.0375Z" fill="white"/>
<path d="M92.3644 35.9208L90.9727 38.6257V39.9608H89.9933V38.6257L88.6016 35.9208H89.7127L90.4916 37.6128L91.2648 35.9208H92.3644Z" fill="white"/>
<path d="M95.4336 40.0011C95.0556 40.0011 94.7081 39.9129 94.3912 39.7364C94.0781 39.5599 93.8281 39.3144 93.641 38.9998C93.4577 38.6813 93.3661 38.3245 93.3661 37.9293C93.3661 37.5342 93.4577 37.1793 93.641 36.8647C93.8281 36.55 94.0781 36.3045 94.3912 36.128C94.7081 35.9515 95.0556 35.8633 95.4336 35.8633C95.8116 35.8633 96.1571 35.9515 96.4702 36.128C96.7871 36.3045 97.0353 36.55 97.2147 36.8647C97.398 37.1793 97.4896 37.5342 97.4896 37.9293C97.4896 38.3245 97.398 38.6813 97.2147 38.9998C97.0315 39.3144 96.7833 39.5599 96.4702 39.7364C96.1571 39.9129 95.8116 40.0011 95.4336 40.0011ZM95.4336 39.1034C95.7543 39.1034 96.0101 38.9959 96.201 38.7811C96.3957 38.5662 96.4931 38.2823 96.4931 37.9293C96.4931 37.5725 96.3957 37.2886 96.201 37.0776C96.0101 36.8627 95.7543 36.7553 95.4336 36.7553C95.109 36.7553 94.8494 36.8608 94.6547 37.0718C94.4638 37.2829 94.3683 37.5687 94.3683 37.9293C94.3683 38.2861 94.4638 38.572 94.6547 38.7868C94.8494 38.9978 95.109 39.1034 95.4336 39.1034Z" fill="white"/>
<path d="M99.7698 35.9208V38.3379C99.7698 38.5796 99.829 38.7657 99.9474 38.8962C100.066 39.0266 100.239 39.0918 100.469 39.0918C100.698 39.0918 100.873 39.0266 100.995 38.8962C101.118 38.7657 101.179 38.5796 101.179 38.3379V35.9208H102.158V38.3322C102.158 38.6928 102.082 38.9978 101.929 39.2472C101.776 39.4966 101.57 39.6846 101.31 39.8112C101.055 39.9378 100.768 40.0011 100.451 40.0011C100.134 40.0011 99.85 39.9397 99.598 39.817C99.3498 39.6904 99.1532 39.5024 99.0081 39.253C98.863 38.9998 98.7905 38.6928 98.7905 38.3322V35.9208H99.7698Z" fill="white"/>
<path d="M105.669 39.9608L104.833 38.4358H104.598V39.9608H103.619V35.9208H105.263C105.58 35.9208 105.849 35.9765 106.07 36.0877C106.295 36.199 106.463 36.3525 106.574 36.5481C106.685 36.74 106.74 36.9548 106.74 37.1927C106.74 37.4613 106.664 37.701 106.511 37.9121C106.362 38.1231 106.141 38.2727 105.847 38.361L106.775 39.9608H105.669ZM104.598 37.7394H105.205C105.385 37.7394 105.518 37.6953 105.606 37.607C105.698 37.5188 105.744 37.3941 105.744 37.233C105.744 37.0795 105.698 36.9587 105.606 36.8704C105.518 36.7822 105.385 36.738 105.205 36.738H104.598V37.7394Z" fill="white"/>
<path d="M113.179 37.2215C113.179 37.4555 113.126 37.6704 113.019 37.866C112.912 38.0579 112.748 38.2132 112.526 38.3322C112.305 38.4511 112.03 38.5106 111.701 38.5106H111.094V39.9608H110.115V35.9208H111.701C112.022 35.9208 112.293 35.9765 112.515 36.0877C112.736 36.199 112.902 36.3525 113.013 36.5481C113.124 36.7438 113.179 36.9682 113.179 37.2215ZM111.627 37.7279C111.814 37.7279 111.953 37.6838 112.045 37.5955C112.137 37.5073 112.183 37.3826 112.183 37.2215C112.183 37.0603 112.137 36.9356 112.045 36.8474C111.953 36.7591 111.814 36.715 111.627 36.715H111.094V37.7279H111.627Z" fill="white"/>
<path d="M116.512 39.9608L115.676 38.4358H115.441V39.9608H114.462V35.9208H116.106C116.423 35.9208 116.692 35.9765 116.913 36.0877C117.139 36.199 117.307 36.3525 117.417 36.5481C117.528 36.74 117.583 36.9548 117.583 37.1927C117.583 37.4613 117.507 37.701 117.354 37.9121C117.205 38.1231 116.984 38.2727 116.69 38.361L117.618 39.9608H116.512ZM115.441 37.7394H116.049C116.228 37.7394 116.362 37.6953 116.449 37.607C116.541 37.5188 116.587 37.3941 116.587 37.233C116.587 37.0795 116.541 36.9587 116.449 36.8704C116.362 36.7822 116.228 36.738 116.049 36.738H115.441V37.7394Z" fill="white"/>
<path d="M120.873 40.0011C120.495 40.0011 120.147 39.9129 119.83 39.7364C119.517 39.5599 119.267 39.3144 119.08 38.9998C118.897 38.6813 118.805 38.3245 118.805 37.9293C118.805 37.5342 118.897 37.1793 119.08 36.8647C119.267 36.55 119.517 36.3045 119.83 36.128C120.147 35.9515 120.495 35.8633 120.873 35.8633C121.251 35.8633 121.596 35.9515 121.909 36.128C122.226 36.3045 122.474 36.55 122.654 36.8647C122.837 37.1793 122.929 37.5342 122.929 37.9293C122.929 38.3245 122.837 38.6813 122.654 38.9998C122.471 39.3144 122.222 39.5599 121.909 39.7364C121.596 39.9129 121.251 40.0011 120.873 40.0011ZM120.873 39.1034C121.193 39.1034 121.449 38.9959 121.64 38.7811C121.835 38.5662 121.932 38.2823 121.932 37.9293C121.932 37.5725 121.835 37.2886 121.64 37.0776C121.449 36.8627 121.193 36.7553 120.873 36.7553C120.548 36.7553 120.289 36.8608 120.094 37.0718C119.903 37.2829 119.808 37.5687 119.808 37.9293C119.808 38.2861 119.903 38.572 120.094 38.7868C120.289 38.9978 120.548 39.1034 120.873 39.1034Z" fill="white"/>
<path d="M125.753 35.9208C126.177 35.9208 126.547 36.0052 126.864 36.1741C127.181 36.3429 127.425 36.5807 127.597 36.8877C127.773 37.1908 127.861 37.5418 127.861 37.9408C127.861 38.336 127.773 38.6871 127.597 38.994C127.425 39.3009 127.179 39.5388 126.858 39.7076C126.542 39.8764 126.173 39.9608 125.753 39.9608H124.247V35.9208H125.753ZM125.69 39.1091C126.06 39.1091 126.349 39.0074 126.555 38.8041C126.761 38.6007 126.864 38.313 126.864 37.9408C126.864 37.5687 126.761 37.279 126.555 37.0718C126.349 36.8647 126.06 36.7611 125.69 36.7611H125.226V39.1091H125.69Z" fill="white"/>
<path d="M130.143 35.9208V38.3379C130.143 38.5796 130.203 38.7657 130.321 38.8962C130.439 39.0266 130.613 39.0918 130.842 39.0918C131.071 39.0918 131.247 39.0266 131.369 38.8962C131.491 38.7657 131.552 38.5796 131.552 38.3379V35.9208H132.532V38.3322C132.532 38.6928 132.455 38.9978 132.302 39.2472C132.15 39.4966 131.944 39.6846 131.684 39.8112C131.428 39.9378 131.142 40.0011 130.825 40.0011C130.508 40.0011 130.223 39.9397 129.972 39.817C129.723 39.6904 129.527 39.5024 129.382 39.253C129.237 38.9998 129.164 38.6928 129.164 38.3322V35.9208H130.143Z" fill="white"/>
<path d="M133.826 37.9351C133.826 37.5361 133.912 37.1812 134.084 36.8704C134.256 36.5558 134.495 36.3122 134.8 36.1395C135.109 35.963 135.459 35.8748 135.848 35.8748C136.325 35.8748 136.734 36.0014 137.074 36.2546C137.413 36.5078 137.641 36.8531 137.755 37.2905H136.678C136.598 37.1217 136.484 36.9932 136.335 36.9049C136.19 36.8167 136.024 36.7726 135.837 36.7726C135.535 36.7726 135.291 36.8781 135.104 37.0891C134.916 37.3001 134.823 37.5821 134.823 37.9351C134.823 38.2881 134.916 38.5701 135.104 38.7811C135.291 38.9921 135.535 39.0976 135.837 39.0976C136.024 39.0976 136.19 39.0535 136.335 38.9652C136.484 38.877 136.598 38.7485 136.678 38.5796H137.755C137.641 39.017 137.413 39.3623 137.074 39.6155C136.734 39.8649 136.325 39.9896 135.848 39.9896C135.459 39.9896 135.109 39.9033 134.8 39.7306C134.495 39.5542 134.256 39.3105 134.084 38.9998C133.912 38.689 133.826 38.3341 133.826 37.9351Z" fill="white"/>
<path d="M142.02 35.9208V36.7093H140.955V39.9608H139.976V36.7093H138.91V35.9208H142.02Z" fill="white"/>
<path d="M144.74 40.0011C144.446 40.0011 144.182 39.9532 143.949 39.8573C143.716 39.7613 143.529 39.6194 143.388 39.4314C143.251 39.2434 143.178 39.017 143.17 38.7523H144.213C144.228 38.9019 144.28 39.017 144.367 39.0976C144.455 39.1743 144.57 39.2127 144.711 39.2127C144.856 39.2127 144.971 39.1801 145.055 39.1149C145.139 39.0458 145.181 38.9518 145.181 38.8329C145.181 38.7331 145.146 38.6506 145.078 38.5854C145.013 38.5202 144.931 38.4665 144.831 38.4243C144.736 38.3821 144.598 38.3341 144.419 38.2804C144.159 38.1998 143.947 38.1192 143.783 38.0387C143.619 37.9581 143.478 37.8392 143.359 37.6819C143.241 37.5246 143.182 37.3193 143.182 37.0661C143.182 36.6901 143.317 36.3966 143.589 36.1856C143.86 35.9707 144.213 35.8633 144.648 35.8633C145.091 35.8633 145.448 35.9707 145.719 36.1856C145.99 36.3966 146.135 36.692 146.154 37.0718H145.095C145.087 36.9414 145.039 36.8397 144.952 36.7668C144.864 36.6901 144.751 36.6517 144.614 36.6517C144.495 36.6517 144.4 36.6843 144.327 36.7496C144.255 36.8109 144.219 36.9011 144.219 37.02C144.219 37.1505 144.28 37.2522 144.402 37.3251C144.524 37.398 144.715 37.4766 144.975 37.561C145.234 37.6493 145.444 37.7337 145.605 37.8142C145.769 37.8948 145.91 38.0118 146.028 38.1653C146.147 38.3188 146.206 38.5163 146.206 38.7581C146.206 38.9883 146.147 39.1974 146.028 39.3853C145.914 39.5733 145.746 39.723 145.524 39.8342C145.303 39.9455 145.041 40.0011 144.74 40.0011Z" fill="white"/>
</svg>
