<?xml version="1.0" encoding="UTF-8"?>
<!DOCTYPE svg PUBLIC "-//W3C//DTD SVG 1.1//EN" "http://www.w3.org/Graphics/SVG/1.1/DTD/svg11.dtd">
<svg xmlns="http://www.w3.org/2000/svg" version="1.1" width="552px" height="311px" style="shape-rendering:geometricPrecision; text-rendering:geometricPrecision; image-rendering:optimizeQuality; fill-rule:evenodd; clip-rule:evenodd" xmlns:xlink="http://www.w3.org/1999/xlink">
<g><path style="opacity:1" fill="#fefefe" d="M -0.5,-0.5 C 183.5,-0.5 367.5,-0.5 551.5,-0.5C 551.5,103.167 551.5,206.833 551.5,310.5C 549.5,310.5 547.5,310.5 545.5,310.5C 545.995,219.752 545.495,129.085 544,38.5C 542.127,36.2911 539.96,34.4578 537.5,33C 366.833,32.3333 196.167,32.3333 25.5,33C 23.04,34.4578 20.8734,36.2911 19,38.5C 17.5051,129.085 17.0051,219.752 17.5,310.5C 11.5,310.5 5.5,310.5 -0.5,310.5C -0.5,206.833 -0.5,103.167 -0.5,-0.5 Z"/></g>
<g><path style="opacity:1" fill="#f0f1f3" d="M 545.5,310.5 C 544.833,310.5 544.167,310.5 543.5,310.5C 543.667,220.833 543.5,131.166 543,41.5C 542.167,38 540,35.8333 536.5,35C 366.5,34.3333 196.5,34.3333 26.5,35C 23,35.8333 20.8333,38 20,41.5C 19.5,131.166 19.3333,220.833 19.5,310.5C 18.8333,310.5 18.1667,310.5 17.5,310.5C 17.0051,219.752 17.5051,129.085 19,38.5C 20.8734,36.2911 23.04,34.4578 25.5,33C 196.167,32.3333 366.833,32.3333 537.5,33C 539.96,34.4578 542.127,36.2911 544,38.5C 545.495,129.085 545.995,219.752 545.5,310.5 Z"/></g>
<g><path style="opacity:1" fill="#fefefe" d="M 543.5,310.5 C 368.833,310.5 194.167,310.5 19.5,310.5C 19.3333,220.833 19.5,131.166 20,41.5C 20.8333,38 23,35.8333 26.5,35C 196.5,34.3333 366.5,34.3333 536.5,35C 540,35.8333 542.167,38 543,41.5C 543.5,131.166 543.667,220.833 543.5,310.5 Z"/></g>
<g><path style="opacity:1" fill="#1f3151" d="M 269.5,136.5 C 304.204,134.236 334.704,144.236 361,166.5C 361.667,173.833 361.667,181.167 361,188.5C 360.167,189.333 359.333,190.167 358.5,191C 349.833,191.667 341.167,191.667 332.5,191C 331.333,190.5 330.5,189.667 330,188.5C 327.496,180.666 324.33,173.166 320.5,166C 301.988,159.795 282.988,157.795 263.5,160C 255.833,161.056 248.5,163.222 241.5,166.5C 238.12,174.809 234.454,182.976 230.5,191C 221.065,191.945 211.732,191.611 202.5,190C 201.353,182.246 201.186,174.413 202,166.5C 221.321,149.254 243.821,139.254 269.5,136.5 Z"/></g>
<g><path style="opacity:1" fill="#1f3050" d="M 257.5,176.5 C 272.837,176.333 288.17,176.5 303.5,177C 308.151,177.742 311.984,179.908 315,183.5C 327,204.167 339,224.833 351,245.5C 351.667,253.167 351.667,260.833 351,268.5C 350.31,271.196 348.81,273.363 346.5,275C 303.917,276.655 261.251,276.989 218.5,276C 215,275.167 212.833,273 212,269.5C 211.333,261.5 211.333,253.5 212,245.5C 223,226.167 234,206.833 245,187.5C 248.148,182.509 252.314,178.843 257.5,176.5 Z"/></g>
<g><path style="opacity:1" fill="#fcfcfc" d="M 275.5,201.5 C 297.718,201.211 306.552,211.878 302,233.5C 294.47,245.678 283.97,249.178 270.5,244C 259.092,236.36 255.925,226.194 261,213.5C 264.541,207.78 269.374,203.78 275.5,201.5 Z"/></g>
<g><path style="opacity:1" fill="#d31d20" d="M 319.5,210.5 C 322.861,211.203 323.194,212.537 320.5,214.5C 318.358,213.563 318.024,212.23 319.5,210.5 Z"/></g>
</svg>
